<svg xmlns="http://www.w3.org/2000/svg" width="55" height="63" fill="none" viewBox="0 0 55 63">
    <path fill="#E8302A" stroke="#fff" stroke-width="5" d="M25.489 56.649l1.88 2.142 1.879-2.142 4.744-5.409c10.47-2.913 18.154-12.518 18.154-23.917 0-13.71-11.114-24.823-24.823-24.823C13.613 2.5 2.5 13.614 2.5 27.323c0 11.443 7.742 21.077 18.274 23.95l4.715 5.376z"/>
    <path fill="#fff" d="M25.24 31.991V18.475c0-1.302-.438-2.039-1.314-2.21v-.704l3.235-1.826c.47.192.907.513 1.313.961.406.427.609.833.609 1.217V29.43c0 1.303.437 2.04 1.313 2.21v.705l-3.235 1.825c-.47-.192-.908-.501-1.313-.928-.406-.449-.609-.865-.609-1.25zm4.323 5.862v1.953c0 .065-.448.257-1.345.577-.876.342-1.388.512-1.538.512-.128 0-.33-.181-.608-.544-.256-.363-.384-.737-.384-1.121v-2.338c0-.064.427-.256 1.28-.577.855-.341 1.378-.512 1.57-.512.192 0 .406.192.64.576.257.363.385.855.385 1.474z"/>
</svg>
