<svg xmlns="http://www.w3.org/2000/svg" width="55" height="63" fill="none" viewBox="0 0 55 63">
    <path fill="#00CE74" stroke="#fff" stroke-width="5" d="M25.489 56.649l1.88 2.142 1.879-2.142 4.744-5.409c10.47-2.913 18.154-12.518 18.154-23.917 0-13.71-11.114-24.823-24.823-24.823C13.613 2.5 2.5 13.614 2.5 27.323c0 11.443 7.742 21.077 18.274 23.95l4.715 5.376z"/>
    <path fill="#fff" d="M30.898 18.485c0-1.065-.108-1.803-.326-2.215-.194-.435-.533-.653-1.017-.653-.46 0-.883.242-1.27.726v2.976c0 .557-.097.944-.29 1.162-.194.218-.448.4-.763.544l-3.775 1.815-.508-.508c.654-.726.98-1.5.98-2.323v-4.138c0-.145 1.27-.738 3.812-1.779 2.564-1.04 4.065-1.56 4.5-1.56.46 0 1.077.544 1.852 1.633.774 1.065 1.161 1.888 1.161 2.468v6.28c0 .629-.593 1.476-1.779 2.54-1.161 1.065-2.323 1.973-3.484 2.723l-1.742 1.125v1.017c0 .75.12 1.343.363 1.778.266.412.532.641.798.69l.363.072v.799c-2.347 1.38-3.605 2.069-3.775 2.069-.17 0-.556-.266-1.161-.799-.581-.532-.871-1.052-.871-1.56v-4.9c0-.267.786-.872 2.359-1.816 1.597-.967 2.759-1.754 3.485-2.359.725-.629 1.088-1.161 1.088-1.597v-4.21zM23.93 41.062v-2.215c0-.072.496-.29 1.489-.653 1.016-.387 1.597-.58 1.742-.58.17 0 .399.205.69.617.314.41.471.834.471 1.27v2.65c0 .072-.484.29-1.452.653-.968.387-1.56.58-1.778.58-.218 0-.472-.217-.763-.653-.266-.411-.399-.968-.399-1.67z"/>
</svg>
