<svg xmlns="http://www.w3.org/2000/svg" width="55" height="63" fill="none" viewBox="0 0 55 63">
    <path fill="#F5A22E" stroke="#fff" stroke-width="5" d="M25.489 56.649l1.88 2.142 1.879-2.142 4.744-5.409c10.47-2.913 18.154-12.518 18.154-23.917 0-13.71-11.114-24.823-24.823-24.823C13.613 2.5 2.5 13.614 2.5 27.323c0 11.443 7.742 21.077 18.274 23.95l4.715 5.376z"/>
    <path fill="#fff" d="M37.94 18.103L26.326 29.649l-6.015-6.776-4.148 3.665 6.291 7.052 1.716 1.983 1.82 2.027.129-.069.138.07 1.867-1.868 1.936-1.866 11.823-11.892-3.941-3.872z"/>
</svg>
